<svg width="52" height="41" viewBox="0 0 52 41" fill="none" xmlns="http://www.w3.org/2000/svg">
<path fill-rule="evenodd" clip-rule="evenodd" d="M4.04004 20.3992C3.33468 20.6915 2.54769 20.7283 1.81756 20.5033C1.33715 20.3473 0.91205 20.0583 0.592669 19.6706C0.267431 19.2675 0.0658444 18.7806 0.0117932 18.2677C-0.026396 17.8083 0.0283839 17.346 0.172931 16.9078C0.317477 16.4696 0.548891 16.0643 0.853643 15.7156C0.889698 15.6737 0.929112 15.6347 0.971502 15.5991L25.3136 0.191267C25.4414 0.075022 25.6067 0.00744173 25.7802 0.000579198C25.9536 -0.00628333 26.1239 0.0480181 26.2607 0.153799L50.6322 15.5574C50.6656 15.5792 50.6954 15.6059 50.7206 15.6365C51.12 16.0181 51.4152 16.4935 51.5786 17.0184C51.742 17.5432 51.7683 18.1005 51.6551 18.6382C51.546 19.0855 51.3262 19.499 51.0153 19.8413C50.7087 20.1846 50.3191 20.4453 49.883 20.599C49.497 20.7319 49.088 20.7867 48.6802 20.7602C48.2724 20.7338 47.8741 20.6266 47.509 20.445V40.2949H45.7705V19.7914C45.7705 19.4417 27.4603 8.49675 25.945 7.33107C24.3413 8.53838 5.77846 19.4042 5.77846 19.8496V40.3448H4.04004V20.3992ZM34.5024 22.8096H39.3178L41.0015 28.9586H32.8439L34.5276 22.8096H34.5024ZM37.3773 29.9744V38.8669H38.7369C38.8256 38.8764 38.9077 38.918 38.9673 38.9837C39.0269 39.0494 39.0599 39.1346 39.0599 39.2229C39.0599 39.3111 39.0269 39.3963 38.9673 39.462C38.9077 39.5277 38.8256 39.5693 38.7369 39.5788H35.1085C35.0198 39.5693 34.9377 39.5277 34.8781 39.462C34.8185 39.3963 34.7855 39.3111 34.7855 39.2229C34.7855 39.1346 34.8185 39.0494 34.8781 38.9837C34.9377 38.918 35.0198 38.8764 35.1085 38.8669H36.4555V29.9744H37.3773ZM24.4002 38.4964V39.5497H23.3563V38.4964H13.6329V39.5497H12.5848V38.5006H12.2186C11.9014 38.5233 11.5868 38.43 11.3347 38.2383C11.2068 38.1212 11.1066 37.9777 11.0411 37.8179C10.9756 37.6582 10.9465 37.4862 10.9558 37.3141V30.8071C10.6877 30.7349 10.4312 30.6256 10.194 30.4823C9.90774 30.3132 9.68022 30.062 9.54153 29.7621C9.32936 29.3797 9.24559 28.9405 9.30234 28.508C9.35909 28.0755 9.55341 27.672 9.85723 27.3558C10.109 27.0976 10.4171 26.8997 10.758 26.7771C11.1 26.6548 11.4652 26.6093 11.8272 26.6439C12.097 26.6621 12.3611 26.7298 12.6059 26.8437V24.3875C12.6059 23.0719 12.8079 22.385 13.3214 21.9978C13.835 21.6107 14.5421 21.6107 15.6365 21.6107H21.3695C22.5607 21.6107 23.2847 21.6565 23.7604 22.0769C24.236 22.4974 24.3749 23.2218 24.3749 24.5748V26.9811C24.7027 26.8295 25.0612 26.7541 25.423 26.7605C25.7692 26.7615 26.1115 26.8323 26.429 26.9686C26.7511 27.0965 27.0391 27.296 27.2709 27.5515C27.5407 27.8596 27.7048 28.2444 27.7396 28.6506C27.7744 29.0568 27.6781 29.4634 27.4645 29.8121C27.3125 30.0975 27.0875 30.3386 26.8121 30.5115C26.5758 30.6585 26.3192 30.7707 26.0502 30.8445V37.3057C26.0603 37.4769 26.032 37.6482 25.9672 37.8073C25.9024 37.9664 25.8028 38.1093 25.6756 38.2258C25.4234 38.4175 25.1088 38.5108 24.7916 38.4881H24.417L24.4002 38.4964ZM13.2499 27.31C13.4627 27.5516 13.6205 27.8355 13.7129 28.1426C13.7677 28.3159 13.803 28.4946 13.8181 28.6755C13.835 28.875 13.835 29.0755 13.8181 29.275V30.1076H23.1627V29.275C23.1462 29.0825 23.1462 28.8889 23.1627 28.6963C23.1748 28.5036 23.2174 28.314 23.2889 28.1343C23.3928 27.8722 23.544 27.631 23.7351 27.4224V24.5623C23.7351 23.4175 23.6467 22.8263 23.3142 22.5515C22.9817 22.2768 22.3882 22.2518 21.3527 22.2518H15.6365C14.6768 22.2518 14.0412 22.2518 13.7045 22.5141C13.3677 22.7763 13.2499 23.3009 13.2499 24.3958V27.31ZM13.8181 30.7737V31.8437H23.1627V30.7737H13.8181ZM11.7977 27.2642C11.5261 27.2453 11.2535 27.2836 10.9979 27.3766C10.7868 27.4434 10.5934 27.5559 10.4318 27.706C10.2702 27.8561 10.1445 28.0399 10.0638 28.2441C9.98319 28.4483 9.94961 28.6678 9.96557 28.8864C9.98153 29.1051 10.0466 29.3175 10.1561 29.5082C10.2341 29.6965 10.3657 29.8585 10.5349 29.9744C10.7841 30.123 11.0576 30.2273 11.3431 30.2825C11.4144 30.2977 11.4783 30.3365 11.5242 30.3925C11.5702 30.4486 11.5954 30.5184 11.5956 30.5906V37.3016C11.5863 37.3826 11.5946 37.4646 11.62 37.5422C11.6454 37.6197 11.6873 37.691 11.743 37.7512C11.8805 37.8501 12.0491 37.8973 12.2186 37.8844H13.1741V29.25C13.191 29.0839 13.191 28.9166 13.1741 28.7505C13.1652 28.6089 13.1383 28.4691 13.0941 28.3341C13.0155 28.0456 12.8489 27.788 12.6169 27.5965C12.3849 27.4051 12.0988 27.289 11.7977 27.2642ZM23.8319 30.3616C23.8363 30.3934 23.8363 30.4256 23.8319 30.4573C23.8363 30.4905 23.8363 30.5241 23.8319 30.5573V32.0935C23.8375 32.1405 23.8375 32.188 23.8319 32.235V37.8594H24.7874C24.955 37.8762 25.1236 37.8382 25.2673 37.7512C25.3738 37.6277 25.4267 37.4676 25.4146 37.3057V30.5698C25.4147 30.4934 25.4423 30.4196 25.4924 30.3616C25.5426 30.3036 25.612 30.2652 25.6882 30.2534C25.9653 30.1985 26.2303 30.0956 26.4711 29.9494C26.6495 29.8376 26.7947 29.681 26.8921 29.4957C27.0454 29.2594 27.1183 28.9809 27.1001 28.7007C27.0819 28.4206 26.9736 28.1536 26.791 27.9386C26.6262 27.7587 26.4237 27.6167 26.1975 27.5223C25.9561 27.4221 25.6975 27.3685 25.4357 27.3641C25.106 27.3532 24.7811 27.4439 24.5058 27.6237C24.2306 27.8034 24.0186 28.0633 23.8993 28.3674C23.8542 28.4862 23.8287 28.6113 23.8235 28.738C23.809 28.907 23.809 29.0769 23.8235 29.2459C23.8256 29.2555 23.8256 29.2654 23.8235 29.275V30.3616H23.8319ZM13.835 37.8553H23.1627V32.4723H13.8181V37.8594L13.835 37.8553ZM41.5444 1.24871L47.551 1.49017V9.49174L41.5444 6.6608V1.24871Z" fill="black"/>
</svg>
