<svg width="52" height="40" viewBox="0 0 52 40" fill="none" xmlns="http://www.w3.org/2000/svg">
<path d="M44.4161 16.593C46.5628 16.3633 48.5057 15.5778 49.8561 14.3938C51.2064 13.2098 51.8646 11.7146 51.699 10.2073C51.5334 8.70001 50.5562 7.29183 48.9628 6.26451C47.3695 5.2372 45.2776 4.66652 43.1056 4.66667H40.2293V2C40.2284 1.46976 39.9254 0.961408 39.3867 0.586469C38.848 0.21153 38.1176 0.000617537 37.3558 0H2.87352C2.11169 0.000617537 1.38131 0.21153 0.842615 0.586469C0.303917 0.961408 0.000887254 1.46976 0 2V10.6667C0.000887254 11.1969 0.303917 11.7053 0.842615 12.0802C1.38131 12.4551 2.11169 12.666 2.87352 12.6667H37.3558C38.1176 12.666 38.848 12.4551 39.3867 12.0802C39.9254 11.7053 40.2284 11.1969 40.2293 10.6667V7.33333H43.1056C44.3119 7.33335 45.4736 7.65036 46.3585 8.22094C47.2434 8.79152 47.7861 9.5736 47.878 10.4107C47.97 11.2478 47.6045 12.0783 46.8546 12.7359C46.1047 13.3935 45.0257 13.8297 43.8335 13.9574L22.9882 16.1894V22H16.2833V40H33.5244V22H26.8196V18.4773L44.4161 16.593ZM38.2759 10.2073H20.1724H2.06897V2.66667H38.2759V10.2073Z" fill="black"/>
</svg>
